<?xml version="1.0" encoding="UTF-8" standalone="no"?>
<svg
   viewBox="0 0 48 48"
   width="48"
   height="48"
   version="1.1"
   id="svg16"
   sodipodi:docname="icons8-gmail-logo.svg"
   xmlns:inkscape="http://www.inkscape.org/namespaces/inkscape"
   xmlns:sodipodi="http://sodipodi.sourceforge.net/DTD/sodipodi-0.dtd"
   xmlns="http://www.w3.org/2000/svg"
   xmlns:svg="http://www.w3.org/2000/svg">
  <defs
     id="defs20" />
  <sodipodi:namedview
     id="namedview18"
     pagecolor="#ffffff"
     bordercolor="#000000"
     borderopacity="0.25"
     inkscape:showpageshadow="2"
     inkscape:pageopacity="0.0"
     inkscape:pagecheckerboard="0"
     inkscape:deskcolor="#d1d1d1"
     showgrid="false" />
  <path
     fill="#e0e0e0"
     d="m 5.5,40.5 h 37 C 44.433,40.5 46,38.933 46,37 V 11 C 46,9.067 44.433,7.5 42.5,7.5 H 5.5 C 3.567,7.5 2,9.067 2,11 v 26 c 0,1.933 1.567,3.5 3.5,3.5 z"
     id="path2" />
  <path
     fill="#d9d9d9"
     d="M 26,40.5 H 42.5 C 44.433,40.5 46,38.933 46,37 V 11 C 46,9.067 44.433,7.5 42.5,7.5 H 5.5 C 3.567,7.5 2,9.067 2,11 Z"
     id="path4" />
  <path
     fill="#eeeeee"
     d="M 6.745,40.5 H 42.5 C 44.433,40.5 46,38.933 46,37 V 11.5 Z"
     id="path6" />
  <path
     fill="#e0e0e0"
     d="M 25.745,40.5 H 42.5 C 44.433,40.5 46,38.933 46,37 V 11.5 L 18.771,31.616 Z"
     id="path8" />
  <path
     fill="#ca3737"
     d="M 42.5,9.5 H 5.5 C 3.567,9.5 2,9.067 2,11 v 26 c 0,1.933 1.567,3.5 3.5,3.5 H 7 V 12 h 34 v 28.5 h 1.5 C 44.433,40.5 46,38.933 46,37 V 11 C 46,9.067 44.433,9.5 42.5,9.5 Z"
     id="path10" />
  <path
     fill="#f5f5f5"
     d="M 42.5,7.5 H 24 5.5 C 3.567,7.5 2,9.036 2,11 c 0,1.206 1.518,2.258 1.518,2.258 L 24,27.756 44.482,13.259 c 0,0 1.518,-1.053 1.518,-2.258 C 46,9.036 44.433,7.5 42.5,7.5 Z"
     id="path12" />
  <path
     fill="#e84f4b"
     d="M 43.246,7.582 24,21 4.754,7.582 C 3.18,7.919 2,9.297 2,11 c 0,1.206 1.518,2.258 1.518,2.258 L 24,27.756 44.482,13.259 c 0,0 1.518,-1.053 1.518,-2.258 0,-1.704 -1.18,-3.082 -2.754,-3.419 z"
     id="path14" />
</svg>
